<svg width="149" height="31" viewBox="0 0 149 31" fill="none" xmlns="http://www.w3.org/2000/svg">
<g id="logo" clip-path="url(#clip0_2_22136)">
<g id="Layer 2">
<g id="Layer 1">
<path id="Vector" d="M48.2953 12.8616H46.3984V10.6118H48.2953V7.04004H51.0916V10.6118H54.0776V12.8616H51.0916V17.713C51.0636 18.2026 51.1693 18.6907 51.3975 19.1259C51.5087 19.2939 51.6632 19.4292 51.8451 19.5177C52.027 19.6062 52.2296 19.6448 52.4316 19.6292C52.7921 19.6442 53.1515 19.58 53.4841 19.4413C53.7465 19.3151 53.9964 19.1649 54.2306 18.9925L55.4176 20.7087C54.9308 21.1239 54.3763 21.454 53.7778 21.685C53.2 21.8861 52.5911 21.9846 51.9788 21.9761C51.388 21.9914 50.7999 21.8925 50.2472 21.685C49.7981 21.5076 49.4022 21.2196 49.0968 20.8481C48.7986 20.4634 48.5897 20.0182 48.485 19.5443C48.3523 18.9943 48.2886 18.4301 48.2953 17.8646V12.8616Z" fill="#00303F"/>
<path id="Vector_2" d="M56.6367 10.6122H59.3168L59.3841 11.9948C59.5368 11.8136 59.7003 11.6415 59.8736 11.4794C60.0866 11.2804 60.3228 11.1073 60.5773 10.9639C60.8726 10.795 61.1868 10.6607 61.5134 10.5637C61.9108 10.4488 62.3233 10.3936 62.7372 10.4C62.9788 10.3961 63.2204 10.4123 63.4592 10.4485C63.6805 10.4809 63.8979 10.5357 64.1078 10.6122L63.5388 13.2198C63.3421 13.14 63.1368 13.0831 62.9269 13.05C62.6958 13.0185 62.4626 13.0043 62.2293 13.0076C61.8579 13.0054 61.489 13.069 61.1402 13.1956C60.8049 13.3098 60.4983 13.4938 60.2407 13.7353C59.9824 13.9733 59.7744 14.2598 59.6288 14.5782C59.473 14.9253 59.3957 15.302 59.4024 15.6819V21.6247H56.6367V10.6122Z" fill="#00303F"/>
<path id="Vector_3" d="M71.9952 20.6182C71.6128 21.0353 71.1429 21.3644 70.6185 21.5824C69.9699 21.8684 69.2663 22.0112 68.5564 22.0008C68.0931 22.002 67.6326 21.9304 67.1919 21.7886C66.748 21.6498 66.3333 21.4319 65.9682 21.1458C65.5827 20.8415 65.2729 20.4535 65.0626 20.0118C64.823 19.5144 64.7056 18.9679 64.7199 18.4169C64.7081 17.8375 64.8295 17.2631 65.0748 16.7371C65.3081 16.2464 65.6538 15.8166 66.0844 15.4818C66.5447 15.1323 67.068 14.8729 67.6264 14.7177C68.2741 14.5419 68.9434 14.4562 69.615 14.4631H70.3554C70.6185 14.4631 70.8816 14.4631 71.1325 14.4994L72.0136 14.5419V14.2872C72.0219 14.0335 71.9651 13.7819 71.8485 13.556C71.7318 13.33 71.5591 13.1372 71.3466 12.9955C70.8348 12.6595 70.2283 12.4938 69.615 12.5225C68.9701 12.4974 68.3268 12.6026 67.7243 12.8318C67.2855 13.0129 66.8637 13.2321 66.4638 13.4867L65.185 11.6068C65.4052 11.4492 65.6622 11.2915 65.9437 11.1278C66.2618 10.9487 66.5957 10.7985 66.9411 10.679C67.3694 10.5329 67.8095 10.4234 68.2566 10.3516C68.8312 10.2607 69.4125 10.2181 69.9944 10.2242C70.6507 10.2152 71.304 10.3135 71.9279 10.5153C72.4707 10.6927 72.9736 10.9728 73.4087 11.34C73.8171 11.6863 74.1413 12.1195 74.3571 12.6074C74.5802 13.114 74.6928 13.6617 74.6875 14.2144V21.6127H72.0809L71.9952 20.6182ZM71.9952 16.6704L71.1631 16.6219L70.4655 16.5916C70.2208 16.5916 70.0127 16.5916 69.8536 16.5916C69.1768 16.5236 68.4991 16.7121 67.9568 17.1192C67.7862 17.2729 67.6497 17.4601 67.556 17.6689C67.4622 17.8777 67.4133 18.1035 67.4122 18.332C67.4067 18.5377 67.4498 18.7419 67.5379 18.9283C67.6261 19.1146 67.757 19.278 67.9201 19.4053C68.3602 19.7019 68.8883 19.8429 69.4192 19.8056C70.0646 19.8076 70.692 19.594 71.1998 19.1992C71.4423 19.0196 71.6497 18.7977 71.8117 18.5442C71.9586 18.3025 72.0368 18.0259 72.0381 17.7438L71.9952 16.6704Z" fill="#00303F"/>
<path id="Vector_4" d="M77.0469 10.6126H79.7269L79.8004 11.8558C79.9575 11.6802 80.1273 11.516 80.3082 11.3646C80.5255 11.1767 80.7636 11.014 81.018 10.8795C81.6705 10.534 82.4017 10.3607 83.1412 10.3761C83.728 10.335 84.3166 10.4223 84.8654 10.6319C85.4143 10.8415 85.9098 11.1682 86.3169 11.589C87.0797 12.5264 87.4674 13.7094 87.4061 14.9121V21.5827H84.6098V14.9121C84.6284 14.6155 84.5865 14.3181 84.4866 14.0379C84.3867 13.7576 84.2309 13.5002 84.0285 13.2809C83.8304 13.0883 83.5947 12.9379 83.3359 12.8389C83.077 12.7398 82.8005 12.6942 82.5232 12.7048C82.156 12.7012 81.7926 12.7778 81.4586 12.9291C81.132 13.0673 80.8397 13.2742 80.6019 13.5356C80.3581 13.8067 80.1691 14.1216 80.0451 14.4634C79.9084 14.826 79.84 15.2103 79.8432 15.5974V21.5645H77.0469V10.6126Z" fill="#00303F"/>
<path id="Vector_5" d="M90.6749 18.4779C91.0548 18.8445 91.5011 19.1366 91.9904 19.339C92.5721 19.5767 93.1971 19.6923 93.8261 19.6786C94.3206 19.6974 94.8139 19.617 95.2762 19.4421C95.4384 19.3868 95.5786 19.2817 95.6765 19.1422C95.7744 19.0026 95.825 18.8358 95.8208 18.6659C95.8209 18.5169 95.7875 18.3698 95.7229 18.2353C95.6307 18.0687 95.49 17.9334 95.3191 17.8472C95.051 17.69 94.7656 17.5639 94.4686 17.4712C93.9865 17.3122 93.4963 17.1786 93 17.071C92.5972 16.9689 92.2009 16.8434 91.813 16.695C91.3987 16.5375 91.0108 16.3188 90.6626 16.0461C90.3102 15.7772 90.0132 15.4437 89.7876 15.0637C89.5485 14.6446 89.43 14.1685 89.445 13.6872C89.4369 13.17 89.5769 12.6611 89.8488 12.2197C90.1159 11.788 90.4752 11.4196 90.9013 11.1402C91.3524 10.8415 91.8479 10.6144 92.3698 10.4671C92.9052 10.3159 93.459 10.2384 94.0158 10.2367C94.8604 10.2174 95.7033 10.3195 96.5184 10.5399C97.1787 10.7385 97.7997 11.0482 98.354 11.4556L96.91 13.4082C96.5451 13.1517 96.1455 12.9475 95.7229 12.8018C95.167 12.6083 94.5804 12.5159 93.9913 12.5289C93.5104 12.4836 93.0272 12.5874 92.6084 12.8261C92.4887 12.9041 92.3902 13.0102 92.3219 13.1351C92.2536 13.2599 92.2175 13.3996 92.2168 13.5416C92.2168 13.8873 92.431 14.1481 92.8654 14.3482C93.5208 14.6101 94.1986 14.8131 94.8908 14.9546C95.4138 15.067 95.9257 15.2253 96.4205 15.4276C96.8446 15.5967 97.2375 15.8344 97.583 16.131C97.9029 16.4038 98.1579 16.7435 98.3295 17.1256C98.5128 17.5613 98.6025 18.0301 98.5927 18.5021C98.5986 19.0082 98.4676 19.5065 98.2133 19.9454C97.9535 20.38 97.6005 20.7526 97.1792 21.0369C96.7142 21.3482 96.2019 21.5836 95.6617 21.7343C95.0643 21.9 94.4464 21.9817 93.8261 21.9769C92.8683 21.9889 91.9151 21.8434 91.0053 21.5463C90.2341 21.296 89.5408 20.8533 88.9922 20.2607L90.6749 18.4779Z" fill="#00303F"/>
<path id="Vector_6" d="M100.453 5.96094H103.256V21.6247H100.453V5.96094Z" fill="#00303F"/>
<path id="Vector_7" d="M112.329 20.618C111.947 21.0351 111.477 21.3642 110.952 21.5822C110.304 21.8682 109.6 22.011 108.89 22.0006C108.427 22.0018 107.967 21.9302 107.526 21.7884C107.081 21.6508 106.666 21.4329 106.302 21.1456C105.917 20.8413 105.607 20.4533 105.397 20.0116C105.155 19.5147 105.035 18.9681 105.048 18.4167C105.038 17.8369 105.161 17.2624 105.409 16.7369C105.638 16.2503 105.977 15.8228 106.4 15.4877C106.86 15.1381 107.384 14.8788 107.942 14.7236C108.59 14.5478 109.259 14.462 109.931 14.4689H110.665C110.934 14.4689 111.197 14.4689 111.448 14.5053L112.329 14.5477V14.2931C112.338 14.0394 112.281 13.7878 112.164 13.5618C112.047 13.3359 111.875 13.1431 111.662 13.0014C111.15 12.6653 110.544 12.4996 109.931 12.5284C109.286 12.5032 108.642 12.6084 108.04 12.8377C107.601 13.0188 107.179 13.2379 106.779 13.4926L105.501 11.6127C105.721 11.455 105.978 11.2974 106.259 11.1336C106.577 10.9546 106.911 10.8044 107.257 10.6849C107.685 10.5388 108.125 10.4292 108.572 10.3574C109.147 10.2666 109.728 10.224 110.31 10.2301C110.966 10.221 111.62 10.3194 112.244 10.5211C112.786 10.6985 113.289 10.9786 113.724 11.3459C114.133 11.6921 114.457 12.1254 114.673 12.6133C114.896 13.1199 115.008 13.6675 115.003 14.2203V21.6186H112.396L112.329 20.618ZM112.329 16.6702L111.497 16.6217L110.799 16.5914C110.555 16.5914 110.347 16.5914 110.188 16.5914C109.511 16.5234 108.833 16.7119 108.291 17.119C108.12 17.2727 107.984 17.4599 107.89 17.6687C107.796 17.8775 107.747 18.1033 107.746 18.3318C107.737 18.5424 107.778 18.7523 107.866 18.9441C107.954 19.136 108.087 19.3044 108.254 19.4355C108.697 19.7312 109.227 19.8721 109.759 19.8357C110.405 19.8378 111.032 19.6241 111.54 19.2293C111.782 19.0497 111.99 18.8278 112.152 18.5744C112.299 18.3326 112.377 18.0561 112.378 17.7739L112.329 16.6702Z" fill="#00303F"/>
<path id="Vector_8" d="M117.346 23.8079C117.513 23.9403 117.689 24.0618 117.872 24.1718C118.085 24.3001 118.332 24.3634 118.582 24.3537C118.765 24.3557 118.945 24.3138 119.108 24.2314C119.271 24.149 119.412 24.0287 119.518 23.8807C119.836 23.4299 120.095 22.9408 120.289 22.4253L120.644 21.5339L115.645 10.6123H118.869L122.045 18.1501L124.823 10.6123H127.882L123.238 21.6248C123.018 22.1767 122.791 22.7406 122.571 23.3167C122.363 23.8803 122.092 24.4192 121.763 24.9237C121.446 25.4085 121.029 25.8218 120.54 26.1366C120.001 26.4673 119.374 26.63 118.741 26.6035C118.206 26.6178 117.672 26.544 117.162 26.3852C116.762 26.2485 116.389 26.0432 116.061 25.7788L117.346 23.8079Z" fill="#00303F"/>
<path id="Vector_9" d="M130.58 12.8616H128.684V10.6118H130.58V7.04004H133.389V10.6118H136.375V12.8616H133.389V17.713C133.361 18.2145 133.473 18.714 133.713 19.1562C133.823 19.3237 133.977 19.4588 134.158 19.5473C134.339 19.6358 134.54 19.6746 134.741 19.6596C135.102 19.6762 135.462 19.6119 135.794 19.4716C136.057 19.3468 136.307 19.1965 136.54 19.0228L137.727 20.739C137.243 21.1552 136.691 21.4855 136.094 21.7153C135.504 21.9199 134.882 22.0185 134.258 22.0064C133.669 22.0223 133.083 21.9234 132.532 21.7153C132.082 21.5397 131.686 21.2513 131.382 20.8785C131.084 20.4936 130.875 20.0485 130.77 19.5747C130.637 19.0246 130.574 18.4604 130.58 17.8949V12.8616Z" fill="#00303F"/>
<path id="Vector_10" d="M148.855 20.0113L148.469 20.3994C148.189 20.6568 147.879 20.8806 147.545 21.0665C147.057 21.3273 146.539 21.5309 146.003 21.6729C145.275 21.8735 144.52 21.9675 143.764 21.9518C142.937 21.9642 142.115 21.8137 141.347 21.5092C140.642 21.2326 140.005 20.8105 139.477 20.271C138.95 19.7315 138.544 19.0869 138.287 18.38C138.004 17.6025 137.863 16.781 137.871 15.9544C137.865 15.1792 138.006 14.4097 138.287 13.6864C138.549 13.0095 138.944 12.391 139.45 11.8671C139.952 11.3478 140.556 10.9352 141.225 10.6543C141.948 10.3514 142.727 10.2007 143.513 10.2116C144.402 10.184 145.285 10.3735 146.083 10.7635C146.756 11.1039 147.337 11.5987 147.778 12.2067C148.21 12.8241 148.52 13.5178 148.69 14.2504C148.881 15.0038 148.977 15.7778 148.977 16.5547V16.9792H140.735C140.729 17.3645 140.824 17.7448 141.01 18.0829C141.186 18.411 141.428 18.6999 141.72 18.9319C142.016 19.1677 142.352 19.3504 142.711 19.4716C143.067 19.5952 143.442 19.6588 143.819 19.6596C144.293 19.6672 144.765 19.6163 145.226 19.508C145.581 19.4224 145.927 19.3047 146.26 19.1563C146.51 19.0437 146.744 18.9011 146.958 18.7318L147.374 18.3679L148.855 20.0113ZM146.132 14.9356C146.13 14.6469 146.074 14.361 145.967 14.0927C145.856 13.8099 145.692 13.5506 145.483 13.3286C145.252 13.0868 144.973 12.8948 144.663 12.7646C144.305 12.6084 143.917 12.5318 143.525 12.5403C143.106 12.5322 142.69 12.6085 142.301 12.7646C141.972 12.8945 141.671 13.086 141.414 13.3286C141.185 13.5466 141 13.8059 140.87 14.0927C140.746 14.3569 140.681 14.6444 140.68 14.9356H146.132Z" fill="#00303F"/>
<path id="Vector_11" d="M3.05942 24.9299V6.06431H9.58211V24.9239H3.05942M0 27.9559H12.6415V3.03223H0V27.962V27.9559Z" fill="#00303F"/>
<path id="Vector_12" d="M26.9227 24.9299V6.06431H33.4515V24.9239H26.9227M23.8633 27.9559H36.5109V3.03223H23.8633V27.962V27.9559Z" fill="#DCAE1E"/>
<path id="Vector_13" d="M19.6601 0H16.8516V31H19.6601V0Z" fill="#C9D3DD"/>
</g>
</g>
</g>
<defs>
<clipPath id="clip0_2_22136">
<rect width="149" height="31" fill="white"/>
</clipPath>
</defs>
</svg>
